<svg width="22" height="25" viewBox="0 0 22 25" fill="none" xmlns="http://www.w3.org/2000/svg">
<path d="M18.3333 24.4444C17.3148 24.4444 16.4491 24.088 15.7361 23.375C15.0231 22.662 14.6667 21.7963 14.6667 20.7778C14.6667 20.6352 14.6769 20.4875 14.6972 20.3347C14.7176 20.1819 14.7481 20.0444 14.7889 19.9222L6.17222 14.9111C5.82593 15.2167 5.43889 15.456 5.01111 15.6292C4.58333 15.8023 4.13519 15.8889 3.66667 15.8889C2.64815 15.8889 1.78241 15.5324 1.06944 14.8194C0.356481 14.1065 0 13.2407 0 12.2222C0 11.2037 0.356481 10.338 1.06944 9.625C1.78241 8.91204 2.64815 8.55556 3.66667 8.55556C4.13519 8.55556 4.58333 8.64213 5.01111 8.81528C5.43889 8.98843 5.82593 9.22778 6.17222 9.53333L14.7889 4.52222C14.7481 4.4 14.7176 4.2625 14.6972 4.10972C14.6769 3.95694 14.6667 3.80926 14.6667 3.66667C14.6667 2.64815 15.0231 1.78241 15.7361 1.06944C16.4491 0.356481 17.3148 0 18.3333 0C19.3519 0 20.2176 0.356481 20.9306 1.06944C21.6435 1.78241 22 2.64815 22 3.66667C22 4.68518 21.6435 5.55093 20.9306 6.26389C20.2176 6.97685 19.3519 7.33333 18.3333 7.33333C17.8648 7.33333 17.4167 7.24676 16.9889 7.07361C16.5611 6.90046 16.1741 6.66111 15.8278 6.35556L7.21111 11.3667C7.25185 11.4889 7.28241 11.6264 7.30278 11.7792C7.32315 11.9319 7.33333 12.0796 7.33333 12.2222C7.33333 12.3648 7.32315 12.5125 7.30278 12.6653C7.28241 12.8181 7.25185 12.9556 7.21111 13.0778L15.8278 18.0889C16.1741 17.7833 16.5611 17.544 16.9889 17.3708C17.4167 17.1977 17.8648 17.1111 18.3333 17.1111C19.3519 17.1111 20.2176 17.4676 20.9306 18.1806C21.6435 18.8935 22 19.7593 22 20.7778C22 21.7963 21.6435 22.662 20.9306 23.375C20.2176 24.088 19.3519 24.4444 18.3333 24.4444ZM18.3333 4.88889C18.6796 4.88889 18.9699 4.77176 19.2042 4.5375C19.4384 4.30324 19.5556 4.01296 19.5556 3.66667C19.5556 3.32037 19.4384 3.03009 19.2042 2.79583C18.9699 2.56157 18.6796 2.44444 18.3333 2.44444C17.987 2.44444 17.6968 2.56157 17.4625 2.79583C17.2282 3.03009 17.1111 3.32037 17.1111 3.66667C17.1111 4.01296 17.2282 4.30324 17.4625 4.5375C17.6968 4.77176 17.987 4.88889 18.3333 4.88889ZM3.66667 13.4444C4.01296 13.4444 4.30324 13.3273 4.5375 13.0931C4.77176 12.8588 4.88889 12.5685 4.88889 12.2222C4.88889 11.8759 4.77176 11.5856 4.5375 11.3514C4.30324 11.1171 4.01296 11 3.66667 11C3.32037 11 3.03009 11.1171 2.79583 11.3514C2.56157 11.5856 2.44444 11.8759 2.44444 12.2222C2.44444 12.5685 2.56157 12.8588 2.79583 13.0931C3.03009 13.3273 3.32037 13.4444 3.66667 13.4444ZM18.3333 22C18.6796 22 18.9699 21.8829 19.2042 21.6486C19.4384 21.4144 19.5556 21.1241 19.5556 20.7778C19.5556 20.4315 19.4384 20.1412 19.2042 19.9069C18.9699 19.6727 18.6796 19.5556 18.3333 19.5556C17.987 19.5556 17.6968 19.6727 17.4625 19.9069C17.2282 20.1412 17.1111 20.4315 17.1111 20.7778C17.1111 21.1241 17.2282 21.4144 17.4625 21.6486C17.6968 21.8829 17.987 22 18.3333 22Z" fill="black"/>
</svg>
